<svg viewBox="0 0 1024 1024" xmlns="http://www.w3.org/2000/svg" width="80" height="80">
    <path d="M933.43943656 991.9994c-15.35999063 0-29.75998125-5.75999625-41.27997375-17.27998875L49.27998875 131.83993719c-23.03998594-23.03998594-23.03998594-59.5199625 0-82.55994844s59.5199625-23.03998594 82.55994844 0l842.87947406 842.87947406a57.95996344 57.95996344 0 0 1 0 82.55994844 57.38996437 57.38996437 0 0 1-41.27997469 17.27998875zM90.55996344 991.9994c-15.35999063 0-29.75998125-5.75999625-41.27997469-17.27998875a57.95996344 57.95996344 0 0 1 0-82.55994844L892.15946281 49.27998875c23.03998594-23.03998594 59.5199625-23.03998594 82.55994844 0s23.03998594 59.5199625 0 82.55994844L131.83993719 974.71941125A57.38996437 57.38996437 0 0 1 90.55996344 991.9994z"></path>
</svg>