<svg viewBox="0 0 1024 1024" xmlns="http://www.w3.org/2000/svg" width="80" height="80">
    <path d="M898.63543088 14.8973037a110.46726541 110.46726541 0 0 1 110.46726542 110.46726542v773.27086176a110.46726541 110.46726541 0 0 1-110.46726542 110.46726542H125.36456912a110.46726541 110.46726541 0 0 1-110.46726542-110.46726542V125.36456912a110.46726541 110.46726541 0 0 1 110.46726542-110.46726542h773.27086176z m0 82.85044939H125.36456912a27.61681602 27.61681602 0 0 0-27.61681603 27.61681603v773.27086176a27.61681602 27.61681602 0 0 0 27.61681603 27.61681603h773.27086176a27.61681602 27.61681602 0 0 0 27.61681603-27.61681603V125.36456912a27.61681602 27.61681602 0 0 0-27.61681603-27.61681603z"></path>
    <path d="M706.97472379 317.02527621a41.42522469 41.42522469 0 0 1 2.87214933 55.42695065l-2.84453167 3.14831708L570.54765132 512l136.42707247 136.42707375a41.42522469 41.42522469 0 0 1-55.45456702 61.41979937l-3.14831709-2.84453167L512 570.54765132l-136.39945606 136.42707247a41.42522469 41.42522469 0 0 1-61.41980068-55.45456702l2.84453295-3.14831709L453.3971159 512l-136.39945735-136.42707375a41.42522469 41.42522469 0 0 1 55.45456831-61.41979937l3.14831708 2.84453167L512 453.45234868l136.42707375-136.42707247a41.42522469 41.42522469 0 0 1 58.54765004 0z"></path>
</svg>