<svg viewBox="0 0 1024 1024" xmlns="http://www.w3.org/2000/svg" width="200" height="200">
    <path d="M512 1024c281.6 0 512-230.4 512-512S793.6 0 512 0 0 230.4 0 512s230.4 512 512 512z m145.066667-583.111111c42.666667-39.822222 45.511111-110.933333 2.844444-153.6 0-2.844444-2.844444-2.844444-2.844444-2.844445-45.511111-42.666667-116.622222-42.666667-162.133334 0l-187.733333 179.2c-71.111111 68.266667-73.955556 179.2-5.688889 253.155556l5.688889 5.688889c73.955556 71.111111 193.422222 71.111111 267.377778 0l85.333333-85.333333c14.222222-11.377778 34.133333-11.377778 45.511111 0 11.377778 11.377778 14.222222 31.288889 0 42.666666l-85.333333 85.333334c-102.4 96.711111-261.688889 96.711111-361.244445 0-93.866667-91.022222-96.711111-241.777778-5.688888-338.488889l8.533333-8.533334 187.733333-179.2c71.111111-68.266667 184.888889-68.266667 256 0 68.266667 65.422222 71.111111 173.511111 5.688889 241.777778-2.844444 2.844444-2.844444 5.688889-5.688889 5.688889l-48.355555-45.511111zM494.933333 597.333333l162.133334-156.444444 45.511111 45.511111-162.133334 156.444444c-42.666667 39.822222-108.088889 39.822222-150.755555 0-39.822222-36.977778-42.666667-102.4-2.844445-142.222222l2.844445-2.844444 105.244444-102.4c14.222222-11.377778 34.133333-11.377778 45.511111 0 11.377778 11.377778 14.222222 31.288889 0 42.666666L435.2 540.444444c-14.222222 14.222222-17.066667 39.822222 0 54.044445 17.066667 17.066667 42.666667 17.066667 59.733333 2.844444z"></path>
</svg>