<svg viewBox="0 0 1024 1024" xmlns="http://www.w3.org/2000/svg" width="200" height="200">
    <path d="M954.73208889 887.15719111h-58.83676444V355.29614222c0-82.72099555-47.18592-118.25607111-76.89557334-124.08149333l-188.74368-58.83676444V107.13315555c0-11.65084445-5.82542222-17.47626667-11.65084444-23.8842311-5.82542222-5.82542222-17.47626667-5.82542222-23.88423112-5.82542223L199.17482667 189.85415111s-71.07015111 17.47626667-71.07015112 112.43064889v584.87239111H69.26791111c-17.47626667 0-29.70965333 11.65084445-29.70965333 29.70965334 0 17.47626667 11.65084445 29.70965333 29.70965333 29.70965333h885.46417778c17.47626667 0 29.70965333-11.65084445 29.70965333-29.70965333 0-18.05880889-11.65084445-29.70965333-29.70965333-29.70965334z m-383.89532444 0H186.94144V302.2848c0-41.36049778 23.88423111-53.01134222 29.70965333-53.01134222l354.18567112-100.19726223v738.08099556z m266.22179555 0h-206.80248889V231.21464889l182.33571556 60.58439111 4.07779555 1.74762667s18.05880889 7.57304889 20.97152 61.74947555v531.86104889zM352.38343111 270.82752H293.54666667v58.83676445h58.83676444V270.82752z m135.73233778 0H429.27900445v58.83676445h58.83676444V270.82752zM352.38343111 399.56935111H293.54666667v58.83676444h58.83676444V399.56935111z m135.73233778 0H429.27900445v58.83676444h58.83676444V399.56935111z m-135.73233778 128.74183111H293.54666667v58.83676445h58.83676444v-58.83676445z m135.73233778 0H429.27900445v58.83676445h58.83676444v-58.83676445z m-135.73233778 128.15928889H293.54666667V715.88977778h58.83676444v-59.41930667z m135.73233778 0H429.27900445V715.88977778h58.83676444v-59.41930667z m-135.73233778 128.74183111H293.54666667V844.04906667h58.83676444v-58.83676445z m135.73233778 0H429.27900445V844.04906667h58.83676444v-58.83676445z m219.03587556-341.36974222h58.83676444V385.00579555h-58.83676444v58.83676445z m0 135.73233778h58.83676444v-58.83676445h-58.83676444v58.83676445z m0 129.32437333h58.83676444v-58.83676444h-58.83676444v58.83676444z m0 131.072h58.83676444v-58.83676444h-58.83676444v58.83676444z"></path>
</svg>