<svg viewBox="0 0 1068 1024" xmlns="http://www.w3.org/2000/svg" width="200" height="200"><path d="M73.813513 1023.554804S0 1035.129902 0 936.029251V89.800505S1.647226 0.494168 91.843955 0.494168H416.703549s39.355335-8.280647 72.166288 42.961423a2652.47836 2652.47836 0 0 1 49.238688 81.02569s11.44154 13.222324 37.70811 13.222324h418.306255s73.813513-8.280647 73.813513 74.347749v728.830534s11.486059 82.672916-67.224611 82.672916H73.768994z m857.892884-672.691306a36.50608 36.50608 0 0 0-36.060884-36.283482H173.893596a36.906757 36.906757 0 0 0-37.752629 36.328001v3.294452c0 21.458452 16.427736 37.975227 37.752629 37.975227h721.751917c19.677668 0 36.060884-16.516775 36.060884-37.975227v-3.294452z m-216.409824 278.959876l-171.400498-171.489538a34.413658 34.413658 0 0 0-48.526375 0l-171.400499 171.489538a34.2801 34.2801 0 0 0 48.526375 48.481855l112.901731-112.946251v294.452701a34.2801 34.2801 0 1 0 68.560199 0v-294.452701l112.857212 112.946251a34.2801 34.2801 0 1 0 48.481855-48.526375z" ></path></svg>