<svg viewBox="0 0 1024 1024" version="1.1" xmlns="http://www.w3.org/2000/svg" width="200" height="200">
    <path d="M886.31833031 70.46233886c36.5094318 0 66.11465861 29.60522682 66.11465861 66.16989137v749.68610008c0 36.5094318-29.60522682 66.11465861-66.11465861 66.11465861H136.63223023a66.16989267 66.16989267 0 0 1-66.16989137-66.11465861V136.63223023c0-36.56466455 29.60522682-66.16989267 66.16989137-66.16989137h749.68610008z m0 66.16989137H136.63223023v749.68610008h749.68610008V136.63223023z"></path>
    <path d="M135.47232394 847.82048773L843.40179753 139.83578137c24.41326619-24.41326619 44.13167313-29.10812412 59.15522087-14.02934232 15.02354772 15.02354772 10.38392255 34.79718875-14.02934234 59.15522085L180.59820247 892.8911322c-24.41326619 24.41326619-44.13167313 29.10812412-59.15522087 14.0845764-15.02354772-15.07878178-10.38392255-34.79718875 14.02934234-59.21045363zM451.1325361 899.40870131l424.74663759-424.7466376c14.63691315-14.63691315 29.43952592-14.41597819 44.51830771 0.60757083 15.02354772 15.07878178 15.24448269 29.88139585 0.55233675 44.5183077l-424.7466376 424.74663761c-14.58167909 14.63691315-29.43952592 14.47121226-44.46307364-0.55233677-15.07878178-15.07878178-15.24448269-29.93662861-0.60757081-44.57354177zM111.39046085 512.77327042l424.74663631-424.7466363c14.63691315-14.63691315 29.43952592-14.41597819 44.51830899 0.60756953 15.02354772 15.07878178 15.24448269 29.88139585 0.55233547 44.5183077l-424.74663631 424.74663761c-14.63691315 14.63691315-29.43952592 14.47121226-44.51830899-0.55233676-15.02354772-15.07878178-15.24448269-29.93662861-0.55233547-44.57354178z"></path>
</svg>