<svg viewBox="0 0 1024 1024" xmlns="http://www.w3.org/2000/svg" width="200" height="200">
    <path d="M863.03994311 814.77632a470.51935289 470.51935289 0 0 0 96.03208534-175.43259022c12.582912-42.96248889 18.96174933-87.67260445 18.96174933-132.907008 0-258.76525511-209.07440355-469.26688711-466.03377778-469.26688711S45.96622222 247.67146667 45.96622222 506.43672178c0 258.736128 209.07440355 469.26688711 466.03377778 469.26688711a463.41233778 463.41233778 0 0 0 135.35368533-20.09770667 43.69066667 43.69066667 0 1 0-25.48622222-83.56568177c-35.47682133 10.80615822-72.43912533 16.31118222-109.86746311 16.31118222-208.78313245 0-378.65244445-171.32566755-378.65244445-381.88555378 0-210.58901333 169.869312-381.91468089 378.65244445-381.91468089s378.65244445 171.32566755 378.65244445 381.88555378a382.61373155 382.61373155 0 0 1-115.22685156 274.29000533c-0.81555911 0.81555911-1.10683022 1.89326222-1.86413511 2.73794844-1.19421155 0.99032178-2.65056711 1.45635555-3.72827023 2.62144a43.60328533 43.60328533 0 0 0 1.39810134 61.74947556l132.93613511 127.05245867c8.44686222 8.09733689 19.31127467 12.11687822 30.17568711 12.11687822 11.534336 0 23.01041778-4.51470222 31.57378844-13.51497955a43.60328533 43.60328533 0 0 0-1.39810133-61.74947556l-101.47885511-96.96415289z"></path>
    <path d="M790.396928 592.53646222a29.12711111 29.12711111 0 0 0 33.93308445-23.330816c6.00018489-32.41847467 8.94202311-62.15725511 3.84477866-101.77012622a28.95234845 28.95234845 0 0 0-32.62236444-25.165824 29.12711111 29.12711111 0 0 0-25.165824 32.62236445c4.16517689 32.18545778 1.80588089 55.89492622-3.32049067 83.74044444a29.06885689 29.06885689 0 0 0 23.330816 33.90395733zM781.80443022 397.55958045a29.12711111 29.12711111 0 0 0 12.20425956-39.35072712A317.95154489 317.95154489 0 0 0 512 187.93176178c-70.69149867 0-137.65472711 22.69001955-193.60790755 65.56512711a29.12711111 29.12711111 0 0 0 35.4185671 46.25385244A257.74580622 257.74580622 0 0 1 512 246.185984a259.81383111 259.81383111 0 0 1 230.45370311 139.198464 29.12711111 29.12711111 0 0 0 39.35072711 12.17513245z"></path>
</svg>