<svg viewBox="0 0 1024 1024" xmlns="http://www.w3.org/2000/svg" width="200" height="200">
    <path d="M511.99999996 512.72183752m-458.18260501 0a458.18260498 458.18260498 0 1 0 916.36520995 0 458.18260498 458.18260498 0 1 0-916.36520995 0Z"></path>
    <path d="M511.99999996 512.72183752m-166.61185641 0a166.61185633 166.61185633 0 1 0 333.22371272 0 166.61185633 166.61185633 0 1 0-333.22371272 0Z" fill="#FFFFFF"></path>
    <path d="M511.99999996 200.32460684m-52.06620515 0a52.06620511 52.06620511 0 1 0 104.13241019 0 52.06620511 52.06620511 0 1 0-104.13241019 0Z" fill="#FFFFFF"></path>
    <path d="M511.99999996 825.11906818m-52.06620515 0a52.06620511 52.06620511 0 1 0 104.13241019 0 52.06620511 52.06620511 0 1 0-104.13241019 0Z" fill="#FFFFFF"></path>
    <path d="M199.60276926 512.72183752m-52.0662051 0a52.06620511 52.06620511 0 1 0 104.13241017 0 52.06620511 52.06620511 0 1 0-104.13241017 0Z" fill="#FFFFFF"></path>
    <path d="M824.39723058 512.72183752m-52.06620512 0a52.06620511 52.06620511 0 1 0 104.13241024 0 52.06620511 52.06620511 0 1 0-104.13241024 0Z" fill="#FFFFFF"></path>
    <path d="M289.15664202 289.87847964m-52.06620508 0a52.06620511 52.06620511 0 1 0 104.13241022 0 52.06620511 52.06620511 0 1 0-104.13241022 0Z" fill="#FFFFFF"></path>
    <path d="M734.8433578 289.87847964m-52.06620513 0a52.06620511 52.06620511 0 1 0 104.13241023 0 52.06620511 52.06620511 0 1 0-104.13241023 0Z" fill="#FFFFFF"></path>
    <path d="M289.15664202 735.5651954m-52.06620508 0a52.06620511 52.06620511 0 1 0 104.13241022 0 52.06620511 52.06620511 0 1 0-104.13241022 0Z" fill="#FFFFFF"></path>
    <path d="M734.8433578 735.5651954m-52.06620513 0a52.06620511 52.06620511 0 1 0 104.13241023 0 52.06620511 52.06620511 0 1 0-104.13241023 0Z" fill="#FFFFFF"></path>
</svg>