<svg viewBox="0 0 1293 1024" xmlns="http://www.w3.org/2000/svg" width="200" height="200">
    <path d="M56.17777777 635.46184027a134.184375 134.184375 0 0 1 20.60531251-47.259375 264.729375 264.729375 0 0 1 43.15874999-47.3521875 29.278125 29.278125 0 0 1 40.98 2.2190625c11.026875 11.919375 10.4315625 29.6025-1.06874999 41.54906251-10.8234375 11.188125-21.646875 22.35-31.64531251 34.18874999-4.599375 5.41125001-7.8871875 12.17624999-10.8234375 18.80625001-3.8015625 8.671875-2.705625 13.89375001 5.1684375 18.85874999a136.755 136.755 0 0 0 28.5871875 14.0578125c31.4428125 10.5796875 64.2375 14.0971875 97.14093751 15.74812501 75.765 3.8015625 151.5290625 1.3528125 227.06343749-4.51875001 126.6346875-9.849375 250.8890625-32.1871875 372.13875001-70.4746875 102.823125-32.4703125 200.735625-75.765 293.19468749-131.235 20.1459375-12.095625 39.50625001-25.273125 55.2675-42.9825a85.018125 85.018125 0 0 0 10.48593751-14.76093749c4.531875-8.0503125 3.950625-12.3253125-3.260625-17.9671875a85.2346875 85.2346875 0 0 0-19.996875-12.24375001c-12.86625001-5.195625-26.1928125-9.28125001-39.45093751-13.4625-16.425-5.1675-25.4353125-21.538125-20.375625-37.7325 4.2346875-13.53 18.94124999-23.270625 32.64656251-20.18625 26.7065625 6.0075 52.4803125 14.746875 75.42562499 30.2109375 15.058125 10.1475 27.208125 23.000625 33.29625001 40.46625001 8.3746875 24.069375 2.705625 46.1896875-10.4446875 66.916875-13.6509375 21.511875-32.05125001 38.6259375-52.98093751 52.588125-22.8103125 15.22124999-46.60875001 28.9396875-70.0959375 43.11843749-3.2334375 1.948125-4.8028125 3.7471875-5.019375 7.83375001-11.540625 212.1-158.671875 389.9840625-364.41374999 440.625a456.94125001 456.94125001 0 0 1-83.70562501 12.69 53.7384375 53.7384375 0 0 0-5.9259375 0.97406249H622.40902778c-1.9621875-0.365625-3.89625001-0.825-5.87156251-1.06874999-18.0215625-2.17874999-36.3-3.0984375-54.0375-6.6703125q-233.1778125-46.974375-343.2121875-258.15375001c-3.00375001-5.8040625-6.6159375-7.41375001-12.3525-8.1178125-25.8946875-2.9221875-51.5334375-7.224375-76.27875-15.735-5.709375-1.96124999-11.4046875-4.0584375-16.9246875-6.52031249C84.68434027 706.93684027 62.64465277 687.73871528 56.19090278 654.79496527z m228.97125 111.81937501c89.578125 157.576875 286.7409375 251.60625001 485.37937501 191.13 186.271875-56.728125 281.4103125-221.6109375 292.81593749-348.88125001-245.91 118.1784375-507.080625 160.62-778.18124999 157.7653125z"></path>
    <path d="M170.48715277 539.45715277c0.69-209.596875 134.82-395.923125 335.19-458.5378125 168.0075-52.4934375 322.4325-21.024375 458.821875 90.28125001 81.054375 66.1453125 132.493125 152.2059375 157.91437501 253.730625 4.8571875 19.4146875-5.1684375 35.6765625-23.96062501 38.896875-14.9765625 2.5565625-28.5871875-7.509375-33.48468749-23.31093751-7.2253125-23.270625-13.299375-47.2040625-23.36531251-69.256875-61.6265625-135.13125001-165.478125-219.58125001-311.35125-247.155-221.51625001-41.9409375-434.1440625 96.8296875-488.08593749 315.234375-16.1128125 65.2659375-16.085625 130.734375-1.35281251 196.284375 3.7340625 16.6134375-5.8575 32.308125-21.525 36.04218751-16.4925 3.9375-31.875-5.7909375-36.2184375-22.91906251-7.4540625-29.49375001-12.69-74.844375-12.58124999-109.29z"></path>
    <path d="M757.75590278 217.39027777c4.2628125 1.096875 8.7271875 1.69124999 12.7453125 3.3421875Q903.08902777 275.43090278 952.06496527 410.22465277c6.088125 16.695-1.7315625 33.2953125-17.655 38.97843751s-32.05125001-2.2190625-38.180625-19.239375c-20.821875-57.796875-57.0121875-103.201875-109.5871875-135.04968751-12.8803125-7.8065625-26.964375-13.6378125-40.588125-20.131875-13.2590625-6.3046875-20.090625-19.7390625-16.92562499-33.98624999 2.881875-13.190625 14.7740625-22.674375 28.62843749-23.40562501z m-117.39375001-18.30468749c16.235625-0.3928125 27.0590625 5.8846875 32.295 17.80406249a29.7646875 29.7646875 0 0 1-6.061875 32.4703125 27.8025 27.8025 0 0 1-19.333125 8.8753125 263.025 263.025 0 0 0-83.24624999 16.66875001c-16.2346875 6.046875-32.9165625-1.69124999-38.7075-17.23687501s1.75875001-31.9828125 17.92687499-38.274375a309.1734375 309.1734375 0 0 1 97.126875-20.30718749z"></path>
</svg>