<svg class="icon" viewBox="0 0 1024 1024" xmlns="http://www.w3.org/2000/svg" width="200" height="200">
    <path d="M708.003125 708.51666668c-16.65-2.615625-17.04375-48.0375-17.04375-48.0375s48.9375-48.0375 59.596875-112.640625c28.6875 0 46.40625-68.68125 17.71875-92.840625 1.209375-25.425 36.871875-199.659375-143.775-199.659375-180.675 0-144.984375 174.234375-143.775 199.659375-28.6875 24.159375-10.96875 92.840625 17.71875 92.840625 10.659375 64.603125 59.625 112.640625 59.625 112.640625s-0.39375 45.421875-17.04375 48.0375c-53.6625 8.465625-253.996875 96.075-253.996875 192.15l675 0c0-96.075-200.3625-183.684375-253.996875-192.15zM364.4 723.84479168c38.75625-23.85 85.809375-45.984375 124.396875-59.259375-13.8375-19.715625-29.25-46.51875-38.953125-78.271875-13.528125-11.053125-24.553125-26.83125-31.640625-46.2375-7.0875-19.434375-9.7875-41.175-7.565625-61.25625 1.575-14.4 5.68125-27.84375 12.009375-39.628125-3.825-40.95-6.525-121.33125 46.096875-179.94375 20.390625-22.725 46.18125-39.065625 77.090625-48.9375-5.5125-56.925-34.425-123.721875-146.30625-123.721875-180.675 0-144.984375 174.234375-143.775 199.659375-28.6875 24.159375-10.96875 92.840625 17.71875 92.840625 10.659375 64.603125 59.625 112.640625 59.625 112.640625s-0.39375 45.421875-17.04375 48.0375c-53.6625 8.465625-253.996875 96.075-253.996875 192.15l289.6875 0c4.134375-2.7 8.353125-5.4 12.7125-8.071875z"></path>
</svg>