<svg viewBox="0 0 1024 1024" xmlns="http://www.w3.org/2000/svg" width="200" height="200">
    <path d="M512.24272555 62.13176889a449.04296334 449.04296334 0 0 1 322.34003 761.67395556l-9.70903665 9.70903665-0.04854557 80.58500779a46.11792555 46.11792555 0 0 1-40.77795555 45.82665444l-5.33996999 0.2912711-262.77508779-0.04854442-3.68943445 0.04854442c-242.96865223 0-441.71264-193.25838222-448.84878222-436.12994332l-0.19417999-12.91301888a449.04296334 449.04296334 0 0 1 449.04296221-449.04296334zM317.81925888 464.4257189a48.54518557 48.54518557 0 1 0 0 97.09036999 48.54518557 48.54518557 0 0 0 0-97.09036999z m194.18074112 0a48.54518557 48.54518557 0 1 0 0 97.09036999 48.54518557 48.54518557 0 0 0 0-97.09036999z m194.18074112 0a48.54518557 48.54518557 0 1 0 0 97.09036999 48.54518557 48.54518557 0 0 0 0-97.09036999z"></path>
</svg>