<svg  viewBox="0 0 1024 1024" xmlns="http://www.w3.org/2000/svg" width="200" height="200">
    <path d="M704.80824153 651.40552021a31.66907783 31.66907783 0 0 0-9.10485966-43.85287529 382.66802227 382.66802227 0 0 0-97.94541973-45.98174179 260.31981885 260.31981885 0 1 0-216.51092754-2.70066797A384.42741503 384.42741503 0 0 0 100.31592464 929.38085a31.66907783 31.66907783 0 0 0 63.33815567 0 321.36196552 321.36196552 0 0 1 497.3100829-268.86167227 31.66907783 31.66907783 0 0 0 43.84407832-9.11365752z m-351.98420448-188.95882939a197.47429365 197.47429365 0 1 1 139.63424237 57.84005127 196.17234258 196.17234258 0 0 1-139.63424237-57.84005126zM934.68176087 763.47886748H831.16786185V659.96496846a31.66907783 31.66907783 0 1 0-63.33815566 0v103.51389902H664.31580716a31.66907783 31.66907783 0 1 0 0 63.33815567H767.82970618v103.51389902a31.66907783 31.66907783 0 0 0 63.33815567 0V826.81702315h103.51389901a31.66907783 31.66907783 0 0 0 0-63.33815567z"></path>
</svg>