<svg viewBox="0 0 1024 1024" xmlns="http://www.w3.org/2000/svg" width="200" height="200"><path d="M663.552 707.072c-8.192 0-14.848-2.56-20.48-7.168-5.632-5.12-9.728-11.264-11.776-19.456l-36.352-91.136h-174.08L394.24 657.408c-2.56 5.632-4.608 11.264-6.656 16.896-2.56 5.632-5.12 10.752-8.192 15.872s-7.168 9.216-11.776 12.288c-4.608 3.072-10.24 5.12-16.384 5.12-10.752 0-18.944-3.072-25.088-9.216-6.656-6.656-7.168-17.92-1.024-33.792l143.36-377.856c2.56-7.68 7.168-13.824 13.824-17.92 6.656-4.608 14.848-6.656 25.088-6.656 10.752 0 19.456 2.048 26.112 6.656 6.656 4.608 11.776 10.752 14.336 18.432l143.872 378.368c4.096 11.264 4.096 20.992 0.512 29.184-4.096 8.704-13.312 13.312-27.136 13.312 0-1.024-1.024-1.024-1.536-1.024z m-84.48-171.008L508.416 344.064l-70.656 192h141.312z" ></path><path d="M507.904 266.24c9.728 0 17.408 2.048 23.04 5.632 6.144 4.096 10.24 9.216 12.288 15.872l143.872 378.88c3.584 9.728 4.096 18.432 0.512 25.088-3.072 6.656-10.752 10.24-22.528 10.24h-2.048c-6.656 0-12.288-2.048-16.896-6.144s-8.192-9.728-10.752-16.896l-37.376-94.72H417.792L389.632 655.36c-2.048 5.632-4.608 11.264-6.656 16.896-2.048 5.12-5.12 10.24-7.68 14.848-3.072 4.608-6.144 8.192-10.24 10.752s-8.192 4.096-13.312 4.096c-9.216 0-16.384-2.56-20.992-7.68-5.12-5.12-5.12-14.848 0-28.672l143.36-377.344c2.048-6.656 6.144-11.776 11.776-15.872 5.12-4.096 12.8-6.144 22.016-6.144m-77.312 274.944h155.648L508.416 329.216l-77.824 211.968M507.904 256c-11.264 0-20.48 2.56-28.16 7.68s-12.8 12.288-15.872 20.48l-143.36 377.344c-2.56 6.656-9.728 27.136 2.048 39.424 7.168 7.168 16.384 10.752 28.672 10.752 7.168 0 13.312-2.048 18.944-5.632 5.12-3.584 9.216-8.192 12.8-13.824 3.072-5.12 6.144-10.752 8.704-16.384 2.048-5.12 4.608-10.752 7.168-16.896l25.6-64.512h166.912l34.816 87.552c3.072 8.704 7.168 15.872 13.312 20.992 6.144 5.632 14.336 8.704 23.552 8.704h2.048c19.968 0 28.16-8.704 31.744-15.872 4.608-9.216 4.096-20.48-0.512-32.768l-143.872-378.88c-3.072-8.704-8.704-15.872-16.384-20.992-7.168-4.608-16.896-7.168-28.16-7.168zM445.44 530.944l62.976-172.032 62.976 172.032H445.44z" ></path><path d="M512 964.608c-137.216 0-265.216-61.44-351.744-167.936-1.536-1.536-2.56-3.584-4.096-5.12C93.184 711.168 59.904 614.4 59.904 512v-6.656l5.12-0.512h-5.12c1.024-68.096 17.92-135.168 50.176-199.68 3.584-9.728 12.288-16.384 23.04-16.384 13.824 0 25.088 11.264 25.088 25.088 0 2.56-0.512 4.608-1.536 6.656 0 1.024 0 1.536-0.512 2.048-30.208 56.32-45.568 119.296-45.568 186.88 0 64 14.336 124.928 43.52 181.248 68.096 138.24 205.824 224.256 359.424 224.256 71.68 0 141.824-19.456 203.776-56.32l-24.064-41.472c-1.024-1.536-1.024-4.096 0.512-5.632 1.024-1.536 2.56-2.048 4.096-2.048h1.536l98.304 26.112c1.536 0.512 2.56 1.024 3.072 2.56s1.024 2.56 0.512 4.096l-26.112 98.304c-0.512 2.048-2.048 3.584-4.096 3.584h-0.512c-2.048 0-3.584-1.024-4.608-2.56l-23.552-40.96c-67.584 39.936-143.36 61.952-219.648 63.488h-1.024c-3.584 0.512-6.656 0.512-9.728 0.512z m378.88-228.864c-13.824 0-25.088-11.264-25.088-25.088 0-2.56 0.512-4.608 1.536-6.656 0-1.024 0-1.536 0.512-2.048 30.208-56.32 45.568-119.296 45.568-186.88 0-64-14.336-124.928-43.52-181.248-68.096-138.24-205.824-224.256-359.424-224.256-71.68 0-141.824 19.456-203.776 56.32l24.064 41.472c1.024 2.048 1.024 4.096-0.512 5.632-1.024 1.536-2.56 2.048-4.096 2.048h-1.536l-98.304-26.112c-1.536-0.512-2.56-1.024-3.072-2.56s-1.024-2.56-0.512-4.096l26.112-98.304c0.512-2.048 2.048-3.584 4.096-3.584h0.512c2.048 0 3.584 1.024 4.608 2.56l23.552 40.96c67.584-39.936 143.36-61.952 219.648-63.488h10.24c137.216 0 265.216 61.44 351.744 167.936 1.536 1.536 2.56 3.584 4.096 5.12 62.976 80.384 96.256 176.64 96.256 279.04v6.656l-5.12 0.512h5.12c-1.024 68.096-17.92 135.168-50.176 199.68-2.56 9.728-11.776 16.384-22.528 16.384z" ></path><path d="M512 65.024c140.288 0 265.728 64.512 347.648 165.888 1.536 1.536 2.56 3.072 4.096 5.12 59.904 75.776 95.744 172.032 95.744 276.48V519.68c-1.024 71.168-19.968 138.24-50.176 198.144-2.56 7.68-9.728 13.312-18.432 13.312-10.752 0-19.968-8.704-19.968-19.968 0-2.048 0.512-4.096 1.536-6.144v-0.512c30.208-56.32 46.08-120.832 46.08-189.44 0-66.048-15.872-128.512-44.032-183.296-66.048-134.144-204.288-226.816-364.032-226.816-76.8 0-148.992 22.016-210.432 59.392l26.624 45.568-98.304-26.112 26.112-98.304 26.112 45.568C346.112 90.624 421.376 66.56 502.272 65.024h9.728M133.12 293.888c10.752 0 19.968 8.704 19.968 19.968 0 2.048-0.512 4.096-1.536 6.144v0.512c-30.208 56.32-46.08 120.832-46.08 189.44 0 66.048 15.872 128.512 44.032 183.296 66.048 134.144 204.288 226.816 364.032 226.816 76.8 0 148.992-22.016 210.432-59.392l-26.624-45.568 98.304 26.112-26.112 98.304-26.112-45.568c-65.024 39.424-140.288 63.488-221.184 65.536h-9.728c-140.288 0-265.728-64.512-347.648-165.888-1.536-1.536-2.56-3.072-4.096-5.12-59.904-75.776-95.744-172.032-95.744-276.48V504.832c1.024-71.168 19.968-138.24 50.176-198.144 2.048-7.68 9.728-12.8 17.92-12.8m378.88-239.104h-10.24c-75.264 1.536-150.528 23.04-217.6 61.44l-20.992-36.352c-2.048-3.072-5.12-5.12-8.704-5.12h-1.536c-4.096 0.512-7.68 3.584-8.704 7.68l-26.112 98.304c-1.536 5.632 2.048 11.264 7.168 12.288l98.304 26.112c1.024 0 1.536 0.512 2.56 0.512 3.072 0 6.144-1.536 8.192-4.096 2.56-3.072 2.56-7.68 0.512-11.264l-21.504-36.864c59.904-34.816 127.488-52.736 196.608-52.736 75.264 0 148.48 21.504 211.456 61.44 61.44 38.912 111.104 94.208 143.36 159.744 28.672 55.808 43.008 116.224 43.008 179.2 0 67.072-14.848 129.024-45.056 184.832-0.512 1.024-1.024 2.56-1.024 3.584-0.512 2.048-1.536 4.608-1.536 7.68 0 16.384 13.312 30.208 30.208 30.208 12.288 0 23.552-7.68 27.648-19.456 32.256-65.024 49.664-133.12 50.688-201.728v-0.512-6.656c0-103.424-33.792-201.216-97.28-282.112-1.536-1.536-2.56-3.584-4.096-5.12-87.04-109.056-216.576-171.008-355.328-171.008zM133.12 283.648c-12.288 0-23.552 7.68-27.648 19.456-32.256 65.024-49.664 133.12-50.688 201.728V512c0 103.424 33.792 201.216 97.28 282.112 1.536 1.536 2.56 3.584 4.096 5.12 87.552 108.032 217.088 169.984 355.84 169.984h10.24c75.264-1.536 150.528-23.04 217.6-61.44l20.992 36.352c2.048 3.072 5.12 5.12 8.704 5.12h1.536c4.096-0.512 7.68-3.584 8.704-7.68l26.112-98.304c1.536-5.632-2.048-11.264-7.168-12.288l-98.304-26.112c-1.024 0-1.536-0.512-2.56-0.512-3.072 0-6.144 1.536-8.192 4.096-2.56 3.072-2.56 7.68-0.512 11.264l21.504 36.864c-59.904 34.816-127.488 52.736-196.608 52.736-75.264 0-148.48-21.504-211.456-61.44-61.44-38.912-111.104-94.208-143.36-159.744-28.672-55.808-43.008-116.224-43.008-179.2 0-67.072 14.848-129.024 45.056-184.832 0.512-1.024 1.024-2.56 1.024-3.584 0.512-2.048 1.536-4.608 1.536-7.68-0.512-15.872-13.824-29.184-30.72-29.184z" ></path></svg>