<svg viewBox="0 0 1024 1024" xmlns="http://www.w3.org/2000/svg" width="200" height="200">
    <path d="M792.4315625 586.1825c-14.8865625-14.7796875-34.36875-23.3353125-54.8746875-24.114375-21.4621875 0.7059375-41.686875 7.0003125-56.64375 22.0640625l-13.224375 13.365c-11.491875 11.525625-20.8603125 24.8203125-29.7703125 37.9040625-14.1778125 20.79-21.4621875 30.054375-31.5028125 31.7503125-43.8440625 7.6359375-121.2075-27.0140625-165.369375-63.928125-55.4765625-46.3190625-98.47125-136.6228125-90.1996875-189.45 1.2375-8.060625 9.5821875-14.4253125 28.321875-26.8734375 13.0471875-8.62875 26.4121875-17.82 37.940625-29.41875l12.0571875-12.1640625c33.3084375-33.37875 31.9640625-88.9621875-3.0403125-123.823125L334.50875 130.34375C295.22375 91.379375 239.04125 75.4690625 187.735625 89.4696875c-46.74375 12.58875-82.0659375 47.8040625-94.4775 94.336875-47.6971875 178.56 25.45875 397.4259375 186.373125 557.5978125 128.6690625 128.1375 291.0684375 199.13625 441.8015625 199.13625 47.0615625 0 93.02625-6.93 136.411875-21.2146875 41.7234375-13.719375 72.73125-47.6634375 82.9490625-90.79875 11.35125-47.9446875-3.571875-98.1534375-39.8475-134.29125l-108.5146875-108.0534375z m77.895 225.6553125c-2.615625 11.030625-10.6425 30.69-35.11125 38.7534375-154.445625 50.563125-357.0834375-13.7896875-504.5259375-160.52625C187.8059375 547.85375 122.075 356.4940625 163.1965625 202.4759375c7.88625-29.4890625 30.549375-39.673125 43.385625-43.065a70.70625 70.70625 0 0 1 18.81-2.475c20.896875 0 41.9709375 8.6990625 58.0584375 24.75l91.5778125 91.153125c6.575625 6.5053125 7.88625 16.335 2.7928125 21.49875l-12.0571875 12.1640625c-8.026875 7.9903125-17.5725 14.07375-26.6596875 20.0840625-23.866875 15.9103125-53.533125 35.64-59.8246875 76.0190625-13.6490625 87.4040625 49.2553125 201.0459375 115.3378125 256.2046875 56.784375 47.379375 154.3725 91.2234375 223.8890625 79.768125 41.439375-7.0003125 62.4065625-37.693125 79.2365625-62.3728125 6.435-9.405 12.9065625-19.305 21.285-27.6496875l13.224375-13.365c2.120625-2.2640625 6.8596875 0.140625 9.050625 2.334375l108.5484375 108.0534375c18.03375 17.960625 25.8834375 43.34625 20.475 66.2596875zM619.98875 164.853125h1.1671875l288.8775-8.9803125c19.9771875-0.635625 35.6765625-17.325 35.0746875-37.33875-0.6721875-20.01375-17.218125-34.2984375-37.33875-35.0746875l-288.8775 8.9803125c-19.9771875 0.635625-35.6765625 17.325-35.0746875 37.33875 0.6384375 19.5890625 16.7259375 35.0746875 36.1715625 35.0746875zM907.769375 241.8621875L618.8946875 250.775c-19.9771875 0.635625-35.6765625 17.325-35.0746875 37.33875 0.635625 19.5890625 16.689375 35.0746875 36.1715625 35.0746875h1.1671875l288.8775-8.91c19.9771875-0.635625 35.6765625-17.325 35.0746875-37.33875-0.6384375-19.9434375-16.2309375-35.85375-37.3415625-35.0775z"></path>
    <path d="M907.769375 400.2678125l-288.8775 8.91c-19.9771875 0.635625-35.6765625 17.325-35.0746875 37.33875 0.635625 19.5890625 16.689375 35.0746875 36.1715625 35.0746875h1.1671875l288.8775-8.91c19.9771875-0.635625 35.6765625-17.325 35.0746875-37.33875-0.635625-20.0109375-16.228125-35.285625-37.33875-35.0746875z"></path>
</svg>