
<svg viewBox="0 0 1024 1024" xmlns="http://www.w3.org/2000/svg" width="200" height="200">
    <path d="M357.00000031 290.66666698H227a35.03749969 35.03749969 0 0 0-34.99999969 34.99999969v130.00000031a35.03749969 35.03749969 0 0 0 34.99999969 34.99999969h130.00000031a35.03749969 35.03749969 0 0 0 34.99999969-34.99999969V325.66666667a35.03749969 35.03749969 0 0 0-34.99999969-34.99999969z m-5.00000062 159.99999938H231.99999969V330.66666636h120z m485.00000062-399.99999938h-130.00000031a35.03749969 35.03749969 0 0 0-34.99999969 34.99999969v130.00000031a35.03749969 35.03749969 0 0 0 34.99999969 34.99999969h130.00000031a35.03749969 35.03749969 0 0 0 34.99999969-34.99999969V85.66666667a35.03749969 35.03749969 0 0 0-34.99999969-34.99999969z m-5.00000062 159.99999938h-120V90.66666636h120zM357.00000031 530.66666698H227a35.03749969 35.03749969 0 0 0-34.99999969 34.99999969v130.00000031a35.03749969 35.03749969 0 0 0 34.99999969 34.99999969h130.00000031a35.03749969 35.03749969 0 0 0 34.99999969-34.99999969V565.66666667a35.03749969 35.03749969 0 0 0-34.99999969-34.99999969z m-5.00000062 159.99999938H231.99999969V570.66666636h120z m245.00000062-399.99999938H467a35.03749969 35.03749969 0 0 0-34.99999969 34.99999969v130.00000031a35.03749969 35.03749969 0 0 0 34.99999969 34.99999969h130.00000031a35.03749969 35.03749969 0 0 0 34.99999969-34.99999969V325.66666667a35.03749969 35.03749969 0 0 0-34.99999969-34.99999969z m-5.00000062 159.99999938H471.99999969V330.66666636h120z m5.00000062-399.99999938H467a35.03749969 35.03749969 0 0 0-34.99999969 34.99999969v130.00000031a35.03749969 35.03749969 0 0 0 34.99999969 34.99999969h130.00000031a35.03749969 35.03749969 0 0 0 34.99999969-34.99999969V85.66666667a35.03749969 35.03749969 0 0 0-34.99999969-34.99999969z m-5.00000062 159.99999938H471.99999969V90.66666636h120z m5.00000062 320.00000062H467a35.03749969 35.03749969 0 0 0-34.99999969 34.99999969v130.00000031a35.03749969 35.03749969 0 0 0 34.99999969 34.99999969h130.00000031a35.03749969 35.03749969 0 0 0 34.99999969-34.99999969V565.66666667a35.03749969 35.03749969 0 0 0-34.99999969-34.99999969z m-5.00000062 159.99999938H471.99999969V570.66666636h120z m245.00000062-159.99999938h-130.00000031a35.03749969 35.03749969 0 0 0-34.99999969 34.99999969v130.00000031a35.03749969 35.03749969 0 0 0 34.99999969 34.99999969h130.00000031a35.03749969 35.03749969 0 0 0 34.99999969-34.99999969V565.66666667a35.03749969 35.03749969 0 0 0-34.99999969-34.99999969z m-5.00000062 159.99999938h-120V570.66666636h120zM357.00000031 50.66666698H227a35.03749969 35.03749969 0 0 0-34.99999969 34.99999969v130.00000031a35.03749969 35.03749969 0 0 0 34.99999969 34.99999969h130.00000031a35.03749969 35.03749969 0 0 0 34.99999969-34.99999969V85.66666667a35.03749969 35.03749969 0 0 0-34.99999969-34.99999969z m-5.00000062 159.99999938H231.99999969V90.66666636h120z m485.00000062 80.00000062h-130.00000031a35.03749969 35.03749969 0 0 0-34.99999969 34.99999969v130.00000031a35.03749969 35.03749969 0 0 0 34.99999969 34.99999969h130.00000031a35.03749969 35.03749969 0 0 0 34.99999969-34.99999969V325.66666667a35.03749969 35.03749969 0 0 0-34.99999969-34.99999969z m-5.00000062 159.99999938h-120V330.66666636h120z m-234.99999938 320.00000062H467a35.03749969 35.03749969 0 0 0-34.99999969 34.99999969v130.00000031a35.03749969 35.03749969 0 0 0 34.99999969 34.99999969h130.00000031a35.03749969 35.03749969 0 0 0 34.99999969-34.99999969v-130.00000031a35.03749969 35.03749969 0 0 0-34.99999969-34.99999969z m-5.00000062 159.99999938H471.99999969v-120h120z"></path>
</svg>