<svg viewBox="0 0 1024 1024" xmlns="http://www.w3.org/2000/svg" width="200" height="200">
    <path d="M318.59333333 128c63.54 0 124.08 26.7 166.92 73.62l13.62 14.52 11.82-12.6a226.02 226.02 0 0 1 333.84 0 261 261 0 0 1 0 351.78l-78.42 79.26a30.6 30.6 0 0 1-22.8 9.36 31.02 31.02 0 0 1-22.14-52.8l78.48-80.28a197.64 197.64 0 0 0 0-265.56 163.92 163.92 0 0 0-243.18 0l-30.3 32.7a31.56 31.56 0 0 1-24.6 15.72 30.84 30.84 0 0 1-30.6-14.82l-31.68-33.6a163.68 163.68 0 0 0-243 0 197.64 197.64 0 0 0 0 266.76l301.68 307.86L569.33333333 747.38a31.02 31.02 0 0 1 44.52 43.26l-89.4 91.5a30.6 30.6 0 0 1-8.88 6.36 31.44 31.44 0 0 1-18.24 6.24 30.24 30.24 0 0 1-20.7-9.12L151.67333333 553.46a260.58 260.58 0 0 1 0-351.84A226.02 226.02 0 0 1 318.59333333 128zM949.73333333 516.44c8.4 0 16.32 3.54 21.96 9.72l2.7 2.88c11.94 13.32 11.94 33.48 0 46.8l-204.3 218.52-3 2.94a36.36 36.36 0 0 1-0.72 0.78l-1.68 1.68a30.42 30.42 0 0 1-44.88-1.44l-101.4-114.48a35.82 35.82 0 0 1 0.6-47.58l2.46-2.1a30.24 30.24 0 0 1 44.1 2.1l77.4 87.42 184.8-197.52a29.58 29.58 0 0 1 21.96-9.72z"></path>
</svg>