<svg viewBox="0 0 1024 1024" xmlns="http://www.w3.org/2000/svg" width="200" height="200">
    <path d="M518.336 900.8a57.168 57.168 0 0 1-40.704-16.848L153.632 560a247.536 247.536 0 1 1 350.016-350.4l14.4 14.64 14.4-14.64a247.536 247.536 0 0 1 350.496 350.4l-324 324a56.784 56.784 0 0 1-40.608 16.8zM328.64 194.912a189.936 189.936 0 0 0-134.4 324.24l324 324 323.952-324a189.936 189.936 0 1 0-268.8-268.8l-14.4 14.4a57.6 57.6 0 0 1-81.6 0l-14.4-14.4a188.928 188.928 0 0 0-134.4-55.632z"></path>
    <path d="M694.928 577.28l-39.504-41.904 91.2-85.968 15.84-15.84a72 72 0 0 0 0-101.856l40.704-40.512a129.6 129.6 0 0 1 0 183.312l-16.752 16.704-91.488 86.4z"></path>
</svg>