<svg viewBox="0 0 1024 1024" xmlns="http://www.w3.org/2000/svg" width="200" height="200">
    <path d="M784.77555555 816.14000001H143.07555555c-16.50000001 0-27.48-10.98000001-27.48-27.48000002V229.64l326.34 326.34000001c16.50000001 16.50000001 35.70000001 24.72 57.6 24.71999998s43.86000001-8.22000001 57.6-24.72l331.92-323.57999999v95.94000001c0 16.50000001 13.74000001 27.48 27.48 27.47999998 16.50000001 0 27.48-10.98000001 27.48-27.48V235.21999999c0-46.62000001-38.46000001-82.32-82.32-82.31999998H143.07555555C96.45555555 152.89999999 60.75555555 188.53999999 60.75555555 235.21999999v553.62000001c0 46.62000001 38.46000001 82.32 82.32 82.32h641.7c16.50000001 0 27.48-10.98000001 27.48-27.48s-10.98000001-27.54000001-27.48-27.54000001z m49.44-608.4l-312.6 309.96a26.58000001 26.58000001 0 0 1-38.46 0L173.31555555 207.73999999h660.9z m147.06 238.92H841.35555555a27.54000001 27.54000001 0 0 0-27.48 27.48c0 16.50000001 10.98000001 27.48 27.48 27.48h139.92a27.54000001 27.54000001 0 0 0 27.48-27.48c-0.12-16.50000001-11.10000001-27.48-27.48-27.48zM898.95555555 556.34000001h-139.92c-13.74000001 0-27.48 10.98000001-27.48 27.48s10.98000001 27.48 27.48 27.48h139.92a27.54000001 27.54000001 0 0 0 27.48-27.48c0-16.50000001-10.98000001-27.48-27.48-27.48z m-82.32 109.67999998h-139.8a27.54000001 27.54000001 0 0 0-27.48 27.48c0 16.50000001 10.98000001 27.48 27.48 27.48h139.8a27.54000001 27.54000001 0 0 0 27.48-27.48c0-16.56-10.92-27.48-27.48-27.48z"></path>
    <path d="M784.77555555 874.10000001H143.07555555A85.44 85.44 0 0 1 57.75555555 788.78000001V235.16a83.4 83.4 0 0 1 85.32-85.26000001h718.62c47.04 0 85.32 38.28 85.32 85.26000001v93.17999999c0 18.24-12.24 30.48-30.48 30.48a30.6 30.6 0 0 1-30.48-30.48v-88.8l-326.82 318.6c-13.44 16.2-35.28 25.56-59.7 25.56-22.68 0-42.78000001-8.64-59.7-25.61999999L118.59555555 236.89999999v551.76000002c0 14.88 9.6 24.48 24.48 24.47999998h641.7c18.24 0 30.48 12.24 30.48 30.48s-12.24 30.48-30.48 30.48zM143.07555555 155.89999999C97.83555555 155.89999999 63.75555555 189.97999999 63.75555555 235.21999999v553.62000001c0 43.74000001 35.58000001 79.32 79.32 79.32h641.7c14.88 0 24.48-9.6 24.48-24.48s-9.6-24.48-24.48-24.48H143.07555555c-18.24 0-30.48-12.24-30.48-30.48V222.44l5.1 5.10000001 326.34 326.33999999c15.84 15.84 34.50000001 23.82000001 55.5 23.82000001 22.32 0 42.96-8.82000001 55.26-23.70000001l337.2-328.73999999v103.01999999a24.6 24.6 0 0 0 24.48 24.48c14.88 0 24.48-9.6 24.48-24.48V235.16c0-43.74000001-35.64-79.32-79.32-79.32H143.07555555z m673.62 568.08000002h-139.8c-18.24 0-30.48-12.24-30.48-30.48a30.6 30.6 0 0 1 30.48-30.48h139.8c18.24 0 30.42000001 12.24 30.42 30.48a30.54000001 30.54000001 0 0 1-30.42 30.48z m-139.8-54.96a24.6 24.6 0 0 0-24.48 24.48c0 14.88 9.6 24.48 24.48 24.48h139.8a24.54000001 24.54000001 0 0 0 24.42-24.48c0-14.88-9.6-24.48-24.42-24.48h-139.8z m222.06-54.72h-139.92c-18.24 0-30.48-12.24-30.48-30.48a30.6 30.6 0 0 1 30.48-30.48h139.92c18.24 0 30.48 12.24 30.48 30.48a30.6 30.6 0 0 1-30.48 30.48z m-139.92-54.96a24.6 24.6 0 0 0-24.48 24.48c0 14.88 9.6 24.48 24.48 24.48h139.92a24.6 24.6 0 0 0 24.48-24.48c0-14.88-9.6-24.48-24.48-24.48h-139.92zM502.35555555 528.86000001a30.18000001 30.18000001 0 0 1-21.3-9.06000001l-315-315.06000001h675.36l-5.16 5.10000001L523.71555555 519.8a30.30000001 30.30000001 0 0 1-21.36 9.06000001zM180.57555555 210.68l304.74 304.86000001a24.12 24.12 0 0 0 34.2-2e-8l307.44-304.85999999H180.57555555z m800.7 293.94000001H841.35555555c-18.24 0-30.48-12.24-30.48-30.48000002a30.6 30.6 0 0 1 30.48-30.48h139.92c18.12 0 30.36 12.24 30.48 30.42000001a30.6 30.6 0 0 1-30.48 30.53999999z m-139.92-54.96000002a24.6 24.6 0 0 0-24.48 24.48c0 14.88 9.6 24.48 24.48 24.48h139.92a24.6 24.6 0 0 0 24.48-24.48c-0.12-14.88-9.72-24.48-24.48-24.48H841.35555555z"></path>
</svg>