<svg viewBox="0 0 1126 1024" xmlns="http://www.w3.org/2000/svg" width="200" height="200">
    <path d="M970.03733333 593.12a96 96 0 0 1 96 96v171.216a96 96 0 0 1-96 96h-138.384a96 96 0 0 1-96-96V689.12a96 96 0 0 1 96-96h138.384zM557.33333333 56c265.104 0 480 194.88 480 435.216 0 8.496-0.288 16.992-0.816 25.344l-62.544 0.048c0.624-8.4 0.96-16.848 0.96-25.44 0-204.432-185.664-372.768-417.6-372.768-231.936 0-417.6 168.336-417.6 372.816 0 80.592 28.704 157.344 81.408 221.088 17.664 21.36 20.256 42.24 18.72 74.784-0.384 8.256-0.96 15.696-2.064 25.824l-4.512 37.2 25.632-9.888c5.184-1.92 9.648-3.504 13.872-4.944l14.304-4.416c28.464-8.16 50.16-10.368 73.104 0l17.904 9.408c14.4 7.2 27.984 12.288 41.904 15.792 23.904 6.048 44.352 7.776 94.272 7.968l55.872-0.192a462.912 462.912 0 0 0 106.176-15.168v64.32a526.56 526.56 0 0 1-105.312 13.248l-57.024 0.24c-67.92-0.144-116.304-3.408-177.36-37.632-26.352-14.736-140.928 56.544-163.584 37.584-21.408-18 17.568-153.12 0-174.384C112.94933333 679.376 77.33333333 589.04 77.33333333 491.216 77.33333333 250.832 292.22933333 56 557.33333333 56z m412.704 599.52h-138.384a33.6 33.6 0 0 0-33.6 33.6v171.216a33.6 33.6 0 0 0 33.6 33.6h138.384a33.6 33.6 0 0 0 33.6-33.6V689.12a33.6 33.6 0 0 0-33.6-33.6z m-42.816 125.04a31.2 31.2 0 0 1 0 62.4h-52.752a31.2 31.2 0 0 1 0-62.4h52.752zM780.34133333 435.2a57.6 57.6 0 1 1 0 115.2 57.6 57.6 0 0 1 0-115.2z m-223.008 0a57.6 57.6 0 1 1 0 115.2 57.6 57.6 0 0 1 0-115.2z m-223.008 0a57.6 57.6 0 1 1 0 115.2 57.6 57.6 0 0 1 0-115.2z"></path>
</svg>